<svg width="48" height="48" viewBox="0 0 48 48" fill="none" xmlns="http://www.w3.org/2000/svg">
<rect x="3" y="3" width="42" height="42" rx="9" fill="white"/>
<path d="M16 7C10.475 7 6 11.5912 6 17.2539C6 21.7853 8.865 25.6279 12.8375 26.9823C13.3375 27.0788 13.5208 26.7618 13.5208 26.4892C13.5208 26.2457 13.5125 25.6006 13.5083 24.7461C10.7267 25.3647 10.14 23.3703 10.14 23.3703C9.685 22.1869 9.0275 21.8707 9.0275 21.8707C8.12167 21.235 9.0975 21.2478 9.0975 21.2478C10.1017 21.3196 10.6292 22.3039 10.6292 22.3039C11.5208 23.8719 12.97 23.4191 13.5417 23.1567C13.6317 22.4936 13.8892 22.0416 14.175 21.7853C11.9542 21.5289 9.62 20.6471 9.62 16.7181C9.62 15.5987 10.0075 14.6844 10.6492 13.9667C10.5367 13.7078 10.1992 12.6653 10.7367 11.2528C10.7367 11.2528 11.5742 10.9777 13.4867 12.3038C14.2867 12.0757 15.1367 11.9629 15.9867 11.9578C16.8367 11.9629 17.6867 12.0757 18.4867 12.3038C20.3867 10.9777 21.2242 11.2528 21.2242 11.2528C21.7617 12.6653 21.4242 13.7078 21.3242 13.9667C21.9617 14.6844 22.3492 15.5987 22.3492 16.7181C22.3492 20.6573 20.0117 21.5246 17.7867 21.7767C18.1367 22.0843 18.4617 22.7132 18.4617 23.6737C18.4617 25.046 18.4492 26.1483 18.4492 26.4816C18.4492 26.7507 18.6242 27.0711 19.1367 26.9686C23.1375 25.6236 26 21.7784 26 17.2539C26 11.5912 21.5225 7 16 7Z" fill="black"/>
<path d="M41.6219 31.5639L32.8893 22.3957C32.3859 21.8681 31.5709 21.8681 31.0659 22.3957L29.2567 24.2988L31.5568 26.7138C32.0943 26.5257 32.7059 26.6525 33.1309 27.0997C33.561 27.5503 33.6793 28.2004 33.496 28.7621L35.711 31.0896C36.2485 30.8945 36.8668 31.0214 37.2943 31.4702C37.8952 32.1002 37.8952 33.1187 37.2943 33.7487C36.6952 34.3778 35.7268 34.3778 35.1276 33.7487C34.6785 33.2754 34.566 32.5789 34.791 32.0022L32.7168 29.8358V35.5451C32.8634 35.6203 33.0018 35.7227 33.1234 35.8496C33.7176 36.4804 33.7176 37.4972 33.1234 38.1245C32.5243 38.7554 31.5493 38.7554 30.9493 38.1245C30.3501 37.4954 30.3501 36.4804 30.9493 35.8513C31.1009 35.6938 31.2718 35.5748 31.4534 35.4961V29.7308C31.2726 29.6511 31.1001 29.5365 30.9534 29.3799C30.4993 28.903 30.3901 28.2057 30.6234 27.622L28.3634 25.2377L22.375 31.521C21.875 32.0504 21.875 32.907 22.375 33.4363L31.1084 42.6036C31.6118 43.1321 32.4268 43.1321 32.9301 42.6036L41.6219 33.4775C42.126 32.9499 42.126 32.0932 41.6219 31.5639Z" fill="#F54D27"/>
</svg>
