<svg width="42" height="42" viewBox="0 0 42 42" fill="none" xmlns="http://www.w3.org/2000/svg">
<rect width="42" height="42" rx="9" fill="white"/>
<path d="M37.8379 19.4399L22.556 4.15953C21.6752 3.28016 20.249 3.28016 19.3652 4.15953L16.1992 7.33141L20.2242 11.3564C21.1648 11.0429 22.2352 11.2543 22.979 11.9995C23.7315 12.7506 23.9385 13.8341 23.6177 14.7704L27.494 18.6495C28.4346 18.3243 29.5167 18.5358 30.2648 19.2839C31.3162 20.3339 31.3162 22.0314 30.2648 23.0814C29.2162 24.1299 27.5217 24.1299 26.4731 23.0814C25.6871 22.2924 25.4902 21.1316 25.884 20.1706L22.2542 16.5597V26.0754C22.5108 26.2008 22.7529 26.3714 22.9658 26.5829C24.0056 27.6343 24.0056 29.3289 22.9658 30.3745C21.9173 31.426 20.211 31.426 19.161 30.3745C18.1125 29.326 18.1125 27.6343 19.161 26.5858C19.4265 26.3233 19.7254 26.1249 20.0433 25.9937V16.3847C19.7269 16.252 19.425 16.061 19.1683 15.7999C18.3735 15.0052 18.1825 13.8429 18.5908 12.8702L14.6358 8.8962L4.15625 19.3685C3.28125 20.2508 3.28125 21.6785 4.15625 22.5608L19.4396 37.8397C20.3204 38.7206 21.7467 38.7206 22.6275 37.8397L37.8379 22.6293C38.7202 21.7499 38.7202 20.3222 37.8379 19.4399Z" fill="#F54D27"/>
</svg>
