<svg width="48" height="48" viewBox="0 0 48 48" fill="none" xmlns="http://www.w3.org/2000/svg">
<rect x="3" y="3" width="42" height="42" rx="9" fill="white"/>
<path d="M20.2404 15.4152C18.4742 15.4152 17.0317 13.9748 17.0317 12.2084C17.0317 10.4421 18.4742 9 20.2404 9C22.0065 9 23.449 10.4425 23.449 12.2087V15.4154L20.2404 15.4152ZM20.2404 17.0317C22.0065 17.0317 23.449 18.4742 23.449 20.2404C23.449 22.0065 22.0067 23.449 20.2404 23.449H12.2084C10.4423 23.449 9 22.0067 9 20.2404C9 18.4742 10.4425 17.0317 12.2087 17.0317H20.2404Z" fill="#35C5F0"/>
<path d="M32.5846 20.2404C32.5846 18.4742 34.025 17.0317 35.7914 17.0317C37.5578 17.0317 39.0001 18.4742 39.0001 20.2404C39.0001 22.0065 37.5575 23.449 35.7914 23.449H32.5846V20.2404ZM30.9681 20.2404C30.9681 22.0065 29.5256 23.449 27.7595 23.449C25.9933 23.449 24.5508 22.0067 24.5508 20.2404V12.2084C24.5508 10.4423 25.9931 9 27.7595 9C29.5256 9 30.9681 10.4425 30.9681 12.2087V20.2404Z" fill="#2EB57D"/>
<path d="M15.4152 27.7595C15.4152 29.5256 13.9748 30.9681 12.2084 30.9681C10.4421 30.9681 9 29.5256 9 27.7595C9 25.9933 10.4425 24.5508 12.2087 24.5508H15.4154L15.4152 27.7595ZM17.0317 27.7595C17.0317 25.9933 18.4742 24.5508 20.2404 24.5508C22.0065 24.5508 23.449 25.9931 23.449 27.7595V35.7914C23.449 37.5575 22.0067 39.0001 20.2404 39.0001C18.4742 39.0001 17.0317 37.5575 17.0317 35.7914V27.7595Z" fill="#DE1C59"/>
<path d="M27.7595 32.5846C29.5256 32.5846 30.9681 34.025 30.9681 35.7914C30.9681 37.5578 29.5256 39.0001 27.7595 39.0001C25.9933 39.0001 24.5508 37.5575 24.5508 35.7914V32.5846H27.7595ZM27.7595 30.9681C25.9933 30.9681 24.5508 29.5256 24.5508 27.7595C24.5508 25.9933 25.9931 24.5508 27.7595 24.5508H35.7914C37.5575 24.5508 39.0001 25.9931 39.0001 27.7595C39.0001 29.5256 37.5575 30.9681 35.7914 30.9681H27.7595Z" fill="#EBB02E"/>
</svg>
