<svg width="24" height="15" viewBox="0 0 24 15" fill="none" xmlns="http://www.w3.org/2000/svg">
<path d="M5.68506 0.125C4.39345 0.129284 3.15596 0.644274 2.24265 1.55759C1.32933 2.4709 0.814343 3.70839 0.810059 5C0.810059 6.17812 1.05868 7.275 1.68756 8.1785C2.13281 8.82363 2.89981 9.20225 3.63106 9.6085C3.63918 10.8923 3.62293 11.2075 2.60893 12.8959C1.94756 13.9976 3.22156 15.2407 4.30706 14.5534C6.61131 13.0876 8.18106 11.7762 9.19181 10.2309C10.2026 8.68875 10.5601 6.963 10.5601 5C10.5579 3.70773 10.0436 2.469 9.12983 1.55523C8.21606 0.641453 6.97733 0.127148 5.68506 0.125ZM18.6851 0.125C17.3934 0.129284 16.156 0.644274 15.2426 1.55759C14.3293 2.4709 13.8143 3.70839 13.8101 5C13.8101 6.17812 14.0587 7.275 14.6876 8.1785C15.1328 8.82363 15.8998 9.20225 16.6311 9.6085C16.6392 10.8923 16.6246 11.2075 15.6089 12.8959C14.9476 13.9976 16.2216 15.2407 17.3071 14.5534C19.6113 13.0876 21.1811 11.7762 22.1918 10.2309C23.2026 8.68875 23.5601 6.963 23.5601 5C23.5579 3.70773 23.0436 2.469 22.1298 1.55523C21.2161 0.641453 19.9773 0.127148 18.6851 0.125Z" fill="#6F5346"/>
</svg>
