<svg width="48" height="48" viewBox="0 0 48 48" fill="none" xmlns="http://www.w3.org/2000/svg">
<rect x="3" y="3" width="42" height="42" rx="9" fill="white"/>
<path d="M24.5 7C14.8313 7 7 15.0346 7 24.9443C7 32.8742 12.0137 39.5989 18.9656 41.969C19.8406 42.138 20.1615 41.5832 20.1615 41.1062C20.1615 40.68 20.1469 39.551 20.1396 38.0556C15.2717 39.1383 14.245 35.6481 14.245 35.6481C13.4488 33.577 12.2981 33.0238 12.2981 33.0238C10.7129 31.9112 12.4206 31.9336 12.4206 31.9336C14.1779 32.0592 15.101 33.7819 15.101 33.7819C16.6615 36.5259 19.1975 35.7333 20.1979 35.2743C20.3554 34.1139 20.806 33.3228 21.3063 32.8742C17.4198 32.4256 13.335 30.8824 13.335 24.0067C13.335 22.0478 14.0131 20.4478 15.136 19.1917C14.9392 18.7386 14.3485 16.9142 15.2892 14.4424C15.2892 14.4424 16.7548 13.9609 20.1017 16.2817C21.5017 15.8824 22.9892 15.6851 24.4767 15.6761C25.9642 15.6851 27.4517 15.8824 28.8517 16.2817C32.1767 13.9609 33.6423 14.4424 33.6423 14.4424C34.5829 16.9142 33.9923 18.7386 33.8173 19.1917C34.9329 20.4478 35.611 22.0478 35.611 24.0067C35.611 30.9003 31.5204 32.4181 27.6267 32.8593C28.2392 33.3976 28.8079 34.4982 28.8079 36.179C28.8079 38.5805 28.786 40.5095 28.786 41.0927C28.786 41.5638 29.0923 42.1245 29.9892 41.9451C36.9906 39.5914 42 32.8623 42 24.9443C42 15.0346 34.1644 7 24.5 7Z" fill="black"/>
</svg>
