<svg width="48" height="48" viewBox="0 0 48 48" fill="none" xmlns="http://www.w3.org/2000/svg">
<rect x="3" y="3" width="42" height="42" rx="9" fill="#CD6799"/>
<path d="M20.0064 30.8937C20.3126 32.0225 20.2794 33.0777 19.9644 34.0297L19.8506 34.3447C19.8086 34.4515 19.7596 34.5547 19.7141 34.6527C19.4691 35.1602 19.1436 35.6327 18.7429 36.0702C17.5214 37.3985 15.8169 37.9025 15.0854 37.479C14.2979 37.0205 14.6899 35.1427 16.1074 33.6465C17.6316 32.04 19.8174 31.0057 19.8174 31.0057V31.0005L20.0064 30.8937ZM37.3506 11.887C36.4021 8.15424 30.2159 6.92749 24.3621 9.00824C20.8814 10.2455 17.1101 12.1897 14.3994 14.7255C11.1741 17.7372 10.6614 20.3622 10.8731 21.4595C11.6204 25.3287 16.9229 27.8592 19.1034 29.737V29.7475C18.4611 30.0625 13.7554 32.4232 12.6529 34.8662C11.4716 37.4387 12.8366 39.278 13.7291 39.5125C16.4854 40.2755 19.3204 38.8825 20.8429 36.6267C22.3129 34.42 22.1834 31.585 21.5499 30.1937C22.4179 29.9575 23.4399 29.8525 24.7524 30.0117C28.4291 30.4317 29.1641 32.7417 29.0049 33.6867C28.8474 34.63 28.0896 35.1812 27.8254 35.3387C27.5629 35.498 27.4841 35.5487 27.5086 35.6555C27.5349 35.813 27.6679 35.813 27.8761 35.7867C28.1649 35.7342 29.7941 34.9992 29.8729 33.2125C29.9516 30.955 27.7974 28.4367 23.9666 28.4875C22.3916 28.5155 21.3924 28.6467 20.6854 28.9355C20.6329 28.8567 20.5786 28.8042 20.5016 28.7517C18.1391 26.2055 13.7554 24.4205 13.9391 21.0342C13.9916 19.8005 14.4379 16.5472 22.3391 12.6097C28.8229 9.37924 33.9959 10.2735 34.8884 12.2422C36.1711 15.0492 32.1304 20.2747 25.3841 21.0342C22.8116 21.323 21.4729 20.3272 21.1299 19.958C20.7641 19.5642 20.7116 19.538 20.5804 19.6185C20.3704 19.7235 20.5016 20.0647 20.5804 20.2747C20.7904 20.7997 21.6041 21.7185 23.0234 22.191C24.2554 22.5847 27.2759 22.8192 30.8984 21.4035C34.9654 19.8302 38.2694 15.562 37.3506 11.887Z" fill="white"/>
</svg>
