<svg width="826" height="215" viewBox="0 0 826 215" fill="none" xmlns="http://www.w3.org/2000/svg">
<path d="M803.529 2.51507C788.233 5.7048 772.576 7.15965 756.726 5.52721C740.2 3.81965 723.836 3.041 707.194 4.01773C695.367 4.71441 683.147 4.07237 672.066 7.36455C663.937 9.78247 656.724 10.2264 648.395 8.22517C640.813 6.40149 633.223 7.28942 627.863 12.3848C622.772 17.2206 622.749 17.2958 617.089 12.7195C615.289 11.2646 613.797 9.59805 611.89 8.232C608.522 5.82092 605.269 3.08198 600.086 2.94537C590.058 2.69265 579.961 1.49736 570.01 2.59703C549.977 4.81687 530.029 7.44652 510.073 10.0352C501.59 11.1349 493.147 12.0638 484.472 12.0296C474.606 11.9886 464.839 11.0939 455.019 10.7387C450.743 10.5816 446.152 11.0119 445.591 14.8915C444.86 19.9801 440.438 22.1726 434.825 23.6752C427.481 25.6492 420.406 27.9578 414.223 31.5574C409.809 34.1324 405.61 33.9343 401.719 30.847C393.013 23.9484 381.978 20.4445 369.535 19.8366C345.373 18.6618 321.664 14.6729 297.494 13.5869C289.535 13.2318 281.299 10.6089 274.17 15.5336C273.662 15.8819 272.609 15.8273 271.809 15.9297C261.181 17.3094 260.628 17.6987 258.359 25.3145C257.398 28.5589 256.483 31.8101 255.383 35.0271C255.021 36.079 255.06 37.5202 252.461 37.7524C249.377 33.1283 248.592 28.0124 247.07 23.0673C244.309 14.106 235.019 7.58995 222.492 7.26893C206.535 6.85912 190.532 6.70202 174.59 7.89049C160.571 8.93552 146.744 11.6676 132.441 10.3426C123.059 9.47511 113.615 9.42046 104.187 9.50926C77.8636 9.74149 84.4925 8.17053 68.1202 21.9335C64.675 24.8295 61.5682 26.059 56.162 25.7653C42.2582 25.0071 27.9161 22.76 15.2889 29.6449C15.8349 38.9545 13.0126 47.4309 4.84568 55.0056C-2.037 61.3851 -1.29106 65.2237 5.20711 71.7535C11.7668 78.3378 19.7569 84.2392 24.7401 91.5544C28.0161 96.3629 32.3764 98.4461 39.336 98.8969C44.5653 99.2316 50.0022 99.5321 56.1928 101.588C47.103 103.132 39.2591 102.749 31.5459 103.302C24.84 103.781 18.611 105.577 13.7739 108.876C10.421 111.171 14.3661 114.231 14.5199 116.997C14.8813 123.554 13.3971 129.715 11.3669 136.081C4.89951 156.387 6.06072 177.138 6.80666 197.82C6.96815 202.164 8.883 206.064 13.0511 209.185C19.0263 209.506 144.952 209.704 148.251 205.784C150.259 203.393 152.02 203.366 155.026 205.046C164.17 210.162 174.09 213.277 185.895 210.654C187.802 210.23 189.963 210.381 192.016 210.374C221.923 210.264 251.861 209.759 281.429 214.294C290.942 215.756 300.17 214.929 309.037 211.979C315.935 209.684 322.964 207.601 329.762 205.162C332.523 204.172 334.368 204.404 336.129 206.091C340.259 210.046 345.773 211.514 352.371 211.111C382.239 209.288 412.1 210.538 442 210.893C465.185 211.166 489.455 213.543 510.726 203.291C513.057 202.164 515.071 203.236 516.848 204.295C522.546 207.696 529.152 208.393 536.042 207.566C544.179 206.59 552.33 206.364 560.543 206.576C565.188 206.699 569.41 205.811 573.24 203.776C574.854 202.915 576.831 201.966 578.7 201.904C583.206 201.754 583.852 199.746 584.244 197.102C584.998 192.014 584.559 186.782 587.151 180.901C589.927 186.188 590.135 190.88 591.473 195.374C592.004 197.164 592.388 198.865 595.18 199.705C601.639 201.651 607.984 203.714 614.974 204.547C623.333 205.538 631.739 205.203 640.113 205.538C662.022 206.419 683.839 206.842 705.81 205.538C735.04 203.803 764.363 204.151 793.37 208.161C802.214 209.383 810.865 211.371 819.663 212.819C824.184 213.563 826.645 212.573 825.853 208.53C824.746 202.854 824.338 197.102 823.569 191.386C823.138 188.189 822.4 184.767 819.263 182.575C814.887 179.515 814.241 175.785 813.833 171.885C813.487 168.572 813.395 165.239 813.434 161.92C813.48 158.061 812.618 154.646 809.096 151.429C801.598 144.591 801.975 144.83 814.072 140.042C814.618 127.441 815.641 115.003 807.474 103.46C804.175 98.8013 800.491 93.945 800.283 88.5901C799.891 78.4881 798.13 68.3998 799.691 58.2705C801.852 44.2207 807.181 30.765 813.187 17.4392C814.849 13.744 815.764 9.80296 819.063 6.57907C820.07 5.59552 822.892 4.5983 820.962 3.36885C818.901 2.05744 817.625 -0.852254 813.564 0.240589C812.218 0.602593 810.819 0.841652 809.458 1.1695C807.497 1.63396 805.528 2.07793 803.552 2.48775L803.529 2.51507Z" fill="#F8D59E"/>
</svg>
